<svg width="196" height="72" viewBox="0 0 196 72" fill="none" xmlns="http://www.w3.org/2000/svg">
    <g clip-path="url(#clip0_93_215)">
        <path d="M47.9112 0H63.8787V27.6227C65.6691 24.7268 67.5973 22.7187 69.491 21.6155C71.3933 20.4951 73.5797 19.9435 76.0502 19.9435C81.4214 19.9435 85.3638 21.8655 87.8687 25.718C90.3908 29.5705 91.6389 34.6727 91.6389 40.9902V71.9483H75.5939V45.4891C75.5939 42.0761 75.1377 39.5595 74.2253 38.034C73.3129 36.4913 71.8754 35.7242 69.9042 35.7242C65.8241 35.7242 63.7926 39.0596 63.8701 45.7304V71.9483H47.9026V0H47.9112Z" fill="#0051B7"/>
        <path d="M178.423 40.1973C178.423 39.163 178.268 38.215 177.958 37.3531C177.657 36.5085 177.192 35.7242 176.581 35.0261C175.462 33.7419 174.007 33.1041 172.191 33.1041C169.763 33.1041 167.904 34.1987 166.613 36.4051C165.313 38.5942 164.676 41.8607 164.676 46.2131C164.676 49.876 165.279 52.9097 166.492 55.2971C167.706 57.6931 169.66 58.8911 172.354 58.8911C176.021 58.8911 178.147 56.452 178.733 51.5739H196C195.286 58.4084 192.798 63.5279 188.554 66.8892C184.302 70.2677 178.845 71.9569 172.191 71.9569C168.197 71.9569 164.633 71.2847 161.526 69.9402C158.401 68.5956 155.827 66.7513 153.753 64.3984C151.696 62.0369 150.138 59.3651 149.113 56.3572C148.089 53.3407 147.59 50.1604 147.59 46.7991C147.59 42.1882 148.45 37.8099 150.181 33.6471C151.833 29.6136 154.502 26.3385 158.212 23.8219C161.904 21.3052 166.63 20.0383 172.354 20.0383C176.607 20.0383 180.471 20.8054 183.906 22.3567C187.34 23.9081 190.069 26.2092 192.092 29.2516C193.159 30.803 194.003 32.5095 194.614 34.3538C195.225 36.2155 195.527 38.1547 195.527 40.2059H178.423V40.1973Z" fill="#0051B7"/>
        <path d="M124.908 35.2933C124.46 32.0871 122.739 30.4927 119.709 30.4927C116.679 30.4927 115.362 31.6476 115.362 33.9746C115.362 35.6208 117.144 36.9653 120.707 37.9909L128.213 39.9129C129.728 40.3179 131.459 40.9902 133.404 41.9296C135.358 42.8863 137.028 44.1618 138.448 45.808C139.851 47.4369 140.729 49.4364 141.056 51.7807C141.271 52.9356 141.375 54.1422 141.375 55.366C141.375 58.8738 140.428 61.8731 138.56 64.3553C136.683 66.8374 134.067 68.7335 130.71 70.0349C127.353 71.3364 123.531 71.9914 119.253 71.9914C117.454 71.9914 115.723 71.8362 114.036 71.5346C112.358 71.2243 110.74 70.802 109.164 70.2504C106.169 69.1731 103.698 67.4063 101.787 64.8982C99.8593 62.4075 98.7402 59.141 98.439 55.073H113.942C113.942 57.0294 114.484 58.5118 115.543 59.5461C116.601 60.5631 118.099 61.0802 120.019 61.0802C121.525 61.0802 122.739 60.7182 123.643 59.9856C124.107 59.5806 124.46 59.1582 124.693 58.7015C124.942 58.2274 125.063 57.6845 125.063 57.0467C125.063 55.5298 124.142 54.2973 122.291 53.3838C121.164 52.9011 118.994 52.2375 115.792 51.4618C112.59 50.6603 109.939 49.8157 107.865 48.9452C105.635 47.9626 103.75 46.4544 102.201 44.4376C101.383 43.4034 100.772 42.2054 100.333 40.8264C99.9109 39.4474 99.7043 37.9047 99.7043 36.1982C99.7043 33.4747 100.307 30.8978 101.529 28.4242C102.751 25.9679 104.852 23.9339 107.847 22.3136C110.826 20.7019 114.777 19.8918 119.7 19.8918C124.624 19.8918 128.265 20.6244 131.226 22.0982C134.179 23.5547 136.322 25.4422 137.622 27.7778C138.345 29.0275 138.896 30.2514 139.274 31.458C139.67 32.6732 139.851 33.9401 139.851 35.2933H124.899H124.908Z" fill="#0051B7"/>
        <path d="M39.9231 55.9607H23.9556V71.9483H39.9231V55.9607Z" fill="#0051B7"/>
        <path d="M15.9675 55.9607H0V71.9483H15.9675V55.9607Z" fill="#0051B7"/>
        <path d="M39.9231 31.9837H23.9556V47.9713H39.9231V31.9837Z" fill="#0051B7"/>
    </g>
    <defs>
        <clipPath id="clip0_93_215">
            <rect width="196" height="72" fill="white"/>
        </clipPath>
    </defs>
</svg>
